<?xml version="1.0" encoding="iso-8859-1"?>
<!-- Generator: Adobe Illustrator 19.0.0, SVG Export Plug-In . SVG Version: 6.00 Build 0)  -->
<svg version="1.1" id="Layer_1" xmlns="http://www.w3.org/2000/svg" xmlns:xlink="http://www.w3.org/1999/xlink" x="0px" y="0px"
	 viewBox="0 0 512 512" style="enable-background:new 0 0 512 512;" xml:space="preserve">
<rect x="256" style="fill:#6DA8D6;" width="233.739" height="512"/>
<rect x="22.261" style="fill:#A7CBE6;" width="233.739" height="512"/>
<g>
	<rect x="89.043" y="244.87" style="fill:#6DA8D6;" width="66.783" height="66.783"/>
	<polygon style="fill:#6DA8D6;" points="222.609,244.87 222.609,311.652 256,311.652 267.13,278.261 256,244.87 	"/>
</g>
<rect x="256" y="244.87" style="fill:#4284B2;" width="33.391" height="66.783"/>
<polygon style="fill:#6DA8D6;" points="222.609,378.435 222.609,445.217 256,445.217 267.13,411.826 256,378.435 "/>
<rect x="256" y="378.435" style="fill:#4284B2;" width="33.391" height="66.783"/>
<rect x="89.043" y="378.435" style="fill:#6DA8D6;" width="66.783" height="66.783"/>
<rect x="356.174" y="311.652" style="fill:#185F8D;" width="66.783" height="133.565"/>
<polygon style="fill:#FFFFFF;" points="256,178.087 89.043,178.087 89.043,66.783 256,66.783 278.261,122.435 "/>
<rect x="256" y="66.783" style="fill:#FFCC75;" width="166.957" height="111.304"/>
<rect x="356.174" y="228.174" style="fill:#F2484B;" width="66.783" height="33.391"/>
<g>
</g>
<g>
</g>
<g>
</g>
<g>
</g>
<g>
</g>
<g>
</g>
<g>
</g>
<g>
</g>
<g>
</g>
<g>
</g>
<g>
</g>
<g>
</g>
<g>
</g>
<g>
</g>
<g>
</g>
</svg>
