<?xml version="1.0" encoding="iso-8859-1"?>
<!-- Generator: Adobe Illustrator 19.0.0, SVG Export Plug-In . SVG Version: 6.00 Build 0)  -->
<svg version="1.1" id="Layer_1" xmlns="http://www.w3.org/2000/svg" xmlns:xlink="http://www.w3.org/1999/xlink" x="0px" y="0px"
	 viewBox="0 0 460 460" style="enable-background:new 0 0 460 460;" xml:space="preserve">
<g>
	<path style="fill:#FF984C;" d="M230,0C102.974,0,0,102.974,0,230c0,99.01,62.562,183.409,150.311,215.82L445.82,150.311
		C413.409,62.562,329.01,0,230,0z"/>
	<path style="fill:#FF5347;" d="M460,230c0-28.015-5.015-54.857-14.186-79.686L384,88.5l-308,283l74.314,74.314
		C175.143,454.985,201.985,460,230,460C357.026,460,460,357.025,460,230z"/>
	<polygon style="fill:#4DE1FF;" points="76,351.5 76,371.5 230,371.5 236.739,361.754 230,351.5 152.5,344.5 	"/>
	<polygon style="fill:#C4F5FF;" points="76,331.5 152.5,324.5 230,331.5 236.739,341.754 230,351.5 76,351.5 	"/>
	<polygon style="fill:#2DB8D4;" points="384,351.5 307.5,344.5 230,351.5 230,371.5 384,371.5 	"/>
	<polygon style="fill:#4DE1FF;" points="384,331.5 384,351.5 230,351.5 230,321.5 	"/>
	<polygon style="fill:#FFFFFF;" points="76,133.978 152.5,129.413 230,133.978 236.739,233.87 230,331.5 76,331.5 	"/>
	<polygon style="fill:#FF5347;" points="76,88.5 76,134.5 230,134.5 236.739,111.478 230,88.5 	"/>
	<polygon style="fill:#C4F5FF;" points="307.5,129.413 230,133.978 230,331.5 384,331.5 384,133.978 	"/>
	<rect x="230" y="88.5" style="fill:#FF1909;" width="154" height="46"/>
	<rect x="95.8" y="154.5" style="fill:#4DE1FF;" width="38" height="39"/>
	<rect x="153.4" y="154.5" style="fill:#4DE1FF;" width="38" height="39"/>
	<rect x="95.8" y="213.5" style="fill:#4DE1FF;" width="38" height="39"/>
	<rect x="153.4" y="213.5" style="fill:#4DE1FF;" width="38" height="39"/>
	<polygon style="fill:#2DB8D4;" points="249,213.5 249,252.5 230,252.5 220,233 230,213.5 	"/>
	<rect x="211" y="213.5" style="fill:#4DE1FF;" width="19" height="39"/>
	<rect x="95.8" y="272.5" style="fill:#4DE1FF;" width="38" height="39"/>
	<rect x="153.4" y="272.5" style="fill:#4DE1FF;" width="38" height="39"/>
	<polygon style="fill:#2DB8D4;" points="249,272.5 249,311.5 230,311.5 220,292 230,272.5 	"/>
	<rect x="211" y="272.5" style="fill:#4DE1FF;" width="19" height="39"/>
	<rect x="326.2" y="154.5" style="fill:#2DB8D4;" width="38" height="39"/>
	<rect x="268.6" y="154.5" style="fill:#2DB8D4;" width="38" height="39"/>
	<polygon style="fill:#2DB8D4;" points="249,154.5 249,193.5 230,193.5 220,174 230,154.5 	"/>
	<rect x="211" y="154.5" style="fill:#4DE1FF;" width="19" height="39"/>
	<rect x="326.2" y="213.5" style="fill:#2DB8D4;" width="38" height="39"/>
	<rect x="268.6" y="213.5" style="fill:#2DB8D4;" width="38" height="39"/>
	<rect x="326.2" y="272.5" style="fill:#2DB8D4;" width="38" height="39"/>
	<rect x="268.6" y="272.5" style="fill:#2DB8D4;" width="38" height="39"/>
</g>
<g>
</g>
<g>
</g>
<g>
</g>
<g>
</g>
<g>
</g>
<g>
</g>
<g>
</g>
<g>
</g>
<g>
</g>
<g>
</g>
<g>
</g>
<g>
</g>
<g>
</g>
<g>
</g>
<g>
</g>
</svg>
