<?xml version="1.0" encoding="iso-8859-1"?>
<!-- Generator: Adobe Illustrator 19.0.0, SVG Export Plug-In . SVG Version: 6.00 Build 0)  -->
<svg version="1.1" id="Layer_1" xmlns="http://www.w3.org/2000/svg" xmlns:xlink="http://www.w3.org/1999/xlink" x="0px" y="0px"
	 viewBox="0 0 393.568 393.568" style="enable-background:new 0 0 393.568 393.568;" xml:space="preserve">
<circle style="fill:#6EB1E1;" cx="196.784" cy="196.784" r="196.784"/>
<circle style="fill:#FCFCFD;" cx="196.784" cy="196.784" r="161.164"/>
<g>
	<path style="fill:#4F5565;" d="M206.804,79.321c-2.586-2.586-6.077-4.137-10.02-4.137c-7.887,0-14.158,6.271-14.158,14.158v78.739
		c4.267-2.133,9.051-3.297,14.158-3.297c5.107,0,9.891,1.164,14.158,3.297V89.341C210.941,85.463,209.39,81.907,206.804,79.321z"/>
	<path style="fill:#4F5565;" d="M164.784,196.784c0-5.107,1.164-9.891,3.297-14.158h-59.345c-7.37,0-13.123,5.754-13.123,13.123
		v2.392c0,7.305,5.754,13.123,13.123,13.123h59.475C166.077,206.869,164.784,201.956,164.784,196.784z"/>
</g>
<g>
	<rect x="190.513" y="43.766" style="fill:#646B79;" width="12.865" height="17.584"/>
	<rect x="190.513" y="332.218" style="fill:#646B79;" width="12.865" height="17.584"/>
	<rect x="332.218" y="190.513" style="fill:#646B79;" width="17.584" height="12.865"/>
	<rect x="43.766" y="190.513" style="fill:#646B79;" width="17.584" height="12.865"/>
	<circle style="fill:#646B79;" cx="196.784" cy="196.784" r="31.935"/>
</g>
<circle style="fill:#F0582F;" cx="196.784" cy="196.784" r="14.158"/>
<g>
</g>
<g>
</g>
<g>
</g>
<g>
</g>
<g>
</g>
<g>
</g>
<g>
</g>
<g>
</g>
<g>
</g>
<g>
</g>
<g>
</g>
<g>
</g>
<g>
</g>
<g>
</g>
<g>
</g>
</svg>
