<?xml version="1.0" encoding="iso-8859-1"?>
<!-- Generator: Adobe Illustrator 19.0.0, SVG Export Plug-In . SVG Version: 6.00 Build 0)  -->
<svg version="1.1" id="Layer_1" xmlns="http://www.w3.org/2000/svg" xmlns:xlink="http://www.w3.org/1999/xlink" x="0px" y="0px"
	 viewBox="0 0 495 495" style="enable-background:new 0 0 495 495;" xml:space="preserve">
<g>
	<path style="fill:#005ECE;" d="M495,297.5v-110h-68.21c-3.63-11.87-8.42-23.31-14.35-34.23l45.42-45.42l-77.78-77.79l-46.05,46.06
		c-11.66-6.08-23.87-10.89-36.53-14.38V0h-50v152c52.66,0,95.5,42.84,95.5,95.5S300.16,343,247.5,343v152h60v-74.82
		c10.09-3.4,19.85-7.66,29.23-12.74l50.42,50.42l77.79-77.78l-51.06-51.05c5.27-10.11,9.58-20.64,12.91-31.53H495z"/>
	<path style="fill:#2488FF;" d="M152,247.5c0-52.66,42.84-95.5,95.5-95.5V0h-60v64.82c-12.42,4.18-24.32,9.65-35.61,16.36
		l-44.04-44.04l-77.79,77.78l47.74,47.74c-5.28,11.19-9.41,22.83-12.36,34.84H0v110h71.58c3.93,10.63,8.81,20.85,14.6,30.61
		l-49.04,49.04l77.78,77.79l52.74-52.75c9.62,4.54,19.59,8.24,29.84,11.06V495h50V343C194.84,343,152,300.16,152,247.5z"/>
</g>
<g>
</g>
<g>
</g>
<g>
</g>
<g>
</g>
<g>
</g>
<g>
</g>
<g>
</g>
<g>
</g>
<g>
</g>
<g>
</g>
<g>
</g>
<g>
</g>
<g>
</g>
<g>
</g>
<g>
</g>
</svg>
